<svg xmlns="http://www.w3.org/2000/svg" width="32" height="32" viewBox="0 0 32 32">
  <title>SpottedHQ favicon</title>
  <rect width="32" height="32" rx="7" fill="#534AB7"/>
  <g transform="translate(4, 2)">
    <path d="M12 0 C5.4 0 0 5.4 0 12 C0 18.6 5.1 22.9 12 30 C18.9 22.9 24 18.6 24 12 C24 5.4 18.6 0 12 0Z" fill="#EEEDFE" opacity="0.95"/>
    <rect x="4" y="15" width="3" height="5" rx="1" fill="#7F77DD"/>
    <rect x="9" y="11" width="3" height="9" rx="1" fill="#534AB7"/>
    <rect x="14" y="8" width="3" height="12" rx="1" fill="#3C3489"/>
    <rect x="19" y="10" width="3" height="10" rx="1" fill="#534AB7"/>
    <circle cx="21" cy="5" r="2.5" fill="#534AB7"/>
    <circle cx="21" cy="5" r="1.2" fill="#EEEDFE"/>
    <line x1="23" y1="3" x2="25.5" y2="1" stroke="#534AB7" stroke-width="1.2" stroke-linecap="round"/>
    <line x1="23.5" y1="5" x2="26" y2="4.5" stroke="#534AB7" stroke-width="1.2" stroke-linecap="round" opacity="0.6"/>
  </g>
</svg>